HIERARCHY
ROOT Root
{
	OFFSET 0.00000 0.00000 0.00000
	CHANNELS 6 Xposition Yposition Zposition Zrotation Xrotation Yrotation
	JOINT Hip
	{
		OFFSET 0 0 0	
		CHANNELS 3 Zrotation Xrotation Yrotation
		JOINT Tummy
		{
			OFFSET 0 0.04 0	
			CHANNELS 3 Zrotation Xrotation Yrotation
			JOINT ChestBottom
			{
				OFFSET 0 0.194 0	
				CHANNELS 3 Zrotation Xrotation Yrotation
				JOINT ChestTop
				{
					OFFSET 0 0.166 0	
					CHANNELS 3 Zrotation Xrotation Yrotation
					JOINT LeftCollar
					{
						OFFSET 0 0.1 0	
						CHANNELS 3 Zrotation Xrotation Yrotation
						JOINT LeftUpperArm
						{
							OFFSET 0.156 -0.02 0.03	
							CHANNELS 3 Zrotation Xrotation Yrotation
							JOINT LeftForeArm
							{
								OFFSET 0.035 -0.27 -0.01	
								CHANNELS 3 Zrotation Xrotation Yrotation
								JOINT LeftHand
								{
									OFFSET 0.01 -0.27 0.01	
									CHANNELS 3 Zrotation Xrotation Yrotation
									End Site
									{
										OFFSET 0 -0.15 0
									}
								}
							}
						}
					}
					JOINT RightCollar
					{
						OFFSET 0 0.1 0	
						CHANNELS 3 Zrotation Xrotation Yrotation
						JOINT RightUpperArm
						{
							OFFSET -0.156 -0.02 0.03	
							CHANNELS 3 Zrotation Xrotation Yrotation
							JOINT RightForeArm
							{
								OFFSET -0.035 -0.27 -0.01	
								CHANNELS 3 Zrotation Xrotation Yrotation
								JOINT RightHand
								{
									OFFSET -0.01 -0.27 0.01	
									CHANNELS 3 Zrotation Xrotation Yrotation
									End Site
									{
										OFFSET 0 -0.15 0
									}
								}
							}
						}
					}
					JOINT Neck
					{
						OFFSET 0 0.1 0	
						CHANNELS 3 Zrotation Xrotation Yrotation
						JOINT Head
						{
							OFFSET 0 0.127 0.03	
							CHANNELS 3 Zrotation Xrotation Yrotation
							End Site
							{
								OFFSET 0 0.127 0.03
							}
						}
					}
				}
			}
		}
	}
	JOINT LeftHip
	{
		OFFSET 0 0 0	
		CHANNELS 3 Zrotation Xrotation Yrotation
		JOINT LeftThigh
		{
			OFFSET 0.088 -0.06 0	
			CHANNELS 3 Zrotation Xrotation Yrotation
			JOINT LeftLowerLeg
			{
				OFFSET 0 -0.39 0.02	
				CHANNELS 3 Zrotation Xrotation Yrotation
				JOINT LeftFootTop
				{
					OFFSET 0 -0.43 -0.02	
					CHANNELS 3 Zrotation Xrotation Yrotation
					JOINT LeftFootFront
					{
						OFFSET 0 -0.07 0.085	
						CHANNELS 3 Zrotation Xrotation Yrotation
						End Site
						{
							OFFSET 0 -0.005 0.09
						}
					}
				}
				JOINT LeftHeel
				{
					OFFSET 0 -0.43 -0.02	
					CHANNELS 3 Zrotation Xrotation Yrotation
					End Site
					{
						OFFSET 0 -0.075 -0.05
					}
				}
			}
		}
	}
	JOINT RightHip
	{
		OFFSET 0 0 0	
		CHANNELS 3 Zrotation Xrotation Yrotation
		JOINT RightThigh
		{
			OFFSET -0.088 -0.06 0	
			CHANNELS 3 Zrotation Xrotation Yrotation
			JOINT RightLowerLeg
			{
				OFFSET 0 -0.39 0.02	
				CHANNELS 3 Zrotation Xrotation Yrotation
				JOINT RightFootTop
				{
					OFFSET 0 -0.43 -0.02	
					CHANNELS 3 Zrotation Xrotation Yrotation
					JOINT RightFootFront
					{
						OFFSET 0 -0.07 0.085	
						CHANNELS 3 Zrotation Xrotation Yrotation
						End Site
						{
							OFFSET 0 -0.005 0.09
						}
					}
				}
				JOINT RightHeel
				{
					OFFSET 0 -0.43 -0.02	
					CHANNELS 3 Zrotation Xrotation Yrotation
					End Site
					{
						OFFSET 0 -0.075 -0.05
					}
				}
			}
		}
	}
}
MOTION
Frames: 23
Frame Time: 0.025
0 0.955 0 -0 0 -0 -0 0 -0 -0 0 -0 -8.1153 17.306 16.115 -0 0 -0 -0 0 -0 21.428 -33.579 30.147 -9.6919 -69.751 -23.396 -0 0 -0 -0 0 -0 -7.2613 -33.501 -11.035 60.909 -10.828 -11.346 -0 0 -0 -0 0 -0 -0 0 -0 -0 0 -0 -0 0 -0 -0 0 -0 -0 0 -0 -0 0 -0 -0 0 -0 -0 0 -0 -0 0 -0 -0 0 -0 -0 0 -0 -0 0 -0 -0 0 -0 
0 0.955 0 -0 0 -0 -0 0 -0 -0 0 -0 -8.1587 17.261 16.081 -0 0 -0 -0 0 -0 21.511 -33.685 30.163 -12.542 -71.056 -26.29 -0 0 -0 -0 0 -0 -7.3799 -33.449 -11.543 61.742 -10.407 -10.882 -0 0 -0 -0 0 -0 -0 0 -0 -0 0 -0 -0 0 -0 -0 0 -0 -0 0 -0 -0 0 -0 -0 0 -0 -0 0 -0 -0 0 -0 -0 0 -0 -0 0 -0 -0 0 -0 -0 0 -0 
0 0.955 0 -0 0 -0 -0 0 -0 -0 0 -0 -8.1794 17.204 16.015 -0 0 -0 -0 0 -0 21.596 -33.834 30.304 -15.777 -72.147 -29.291 -0 0 -0 -0 0 -0 -7.4186 -33.328 -11.934 62.617 -10.031 -10.524 -0 0 -0 -0 0 -0 -0 0 -0 -0 0 -0 -0 0 -0 -0 0 -0 -0 0 -0 -0 0 -0 -0 0 -0 -0 0 -0 -0 0 -0 -0 0 -0 -0 0 -0 -0 0 -0 -0 0 -0 
0 0.955 0 -0 0 -0 -0 0 -0 -0 0 -0 -8.1739 17.133 15.942 -0 0 -0 -0 0 -0 21.679 -33.988 30.429 -18.557 -73.044 -31.688 -0 0 -0 -0 0 -0 -7.3872 -33.126 -12.186 63.519 -9.7759 -10.241 -0 0 -0 -0 0 -0 -0 0 -0 -0 0 -0 -0 0 -0 -0 0 -0 -0 0 -0 -0 0 -0 -0 0 -0 -0 0 -0 -0 0 -0 -0 0 -0 -0 0 -0 -0 0 -0 -0 0 -0 
0 0.955 0 -0 0 -0 -0 0 -0 -0 0 -0 -8.144 17.059 15.88 -0 0 -0 -0 0 -0 21.765 -34.119 30.467 -20.554 -73.769 -33.191 -0 0 -0 -0 0 -0 -7.3006 -32.851 -12.313 64.483 -9.65 -10.069 -0 0 -0 -0 0 -0 -0 0 -0 -0 0 -0 -0 0 -0 -0 0 -0 -0 0 -0 -0 0 -0 -0 0 -0 -0 0 -0 -0 0 -0 -0 0 -0 -0 0 -0 -0 0 -0 -0 0 -0 
0 0.955 0 -0 0 -0 -0 0 -0 -0 0 -0 -8.0937 16.99 15.814 -0 0 -0 -0 0 -0 21.834 -34.237 30.437 -21.902 -74.276 -33.907 -0 0 -0 -0 0 -0 -7.1692 -32.538 -12.371 65.524 -9.5354 -10.012 -0 0 -0 -0 0 -0 -0 0 -0 -0 0 -0 -0 0 -0 -0 0 -0 -0 0 -0 -0 0 -0 -0 0 -0 -0 0 -0 -0 0 -0 -0 0 -0 -0 0 -0 -0 0 -0 -0 0 -0 
0 0.955 0 -0 0 -0 -0 0 -0 -0 0 -0 -8.0297 16.93 15.72 -0 0 -0 -0 0 -0 21.869 -34.365 30.38 -22.629 -74.519 -33.943 -0 0 -0 -0 0 -0 -6.9852 -32.214 -12.362 66.561 -9.3721 -9.9606 -0 0 -0 -0 0 -0 -0 0 -0 -0 0 -0 -0 0 -0 -0 0 -0 -0 0 -0 -0 0 -0 -0 0 -0 -0 0 -0 -0 0 -0 -0 0 -0 -0 0 -0 -0 0 -0 -0 0 -0 
0 0.955 0 -0 0 -0 -0 0 -0 -0 0 -0 -7.964 16.875 15.61 -0 0 -0 -0 0 -0 21.864 -34.497 30.245 -22.373 -74.538 -33.133 -0 0 -0 -0 0 -0 -6.7529 -31.883 -12.24 67.509 -9.2406 -9.7967 -0 0 -0 -0 0 -0 -0 0 -0 -0 0 -0 -0 0 -0 -0 0 -0 -0 0 -0 -0 0 -0 -0 0 -0 -0 0 -0 -0 0 -0 -0 0 -0 -0 0 -0 -0 0 -0 -0 0 -0 
0 0.955 0 -0 0 -0 -0 0 -0 -0 0 -0 -7.9116 16.813 15.5 -0 0 -0 -0 0 -0 21.806 -34.605 29.981 -21.061 -74.384 -31.497 -0 0 -0 -0 0 -0 -6.4965 -31.552 -11.997 68.354 -9.1728 -9.5533 -0 0 -0 -0 0 -0 -0 0 -0 -0 0 -0 -0 0 -0 -0 0 -0 -0 0 -0 -0 0 -0 -0 0 -0 -0 0 -0 -0 0 -0 -0 0 -0 -0 0 -0 -0 0 -0 -0 0 -0 
0 0.955 0 -0 0 -0 -0 0 -0 -0 0 -0 -7.8751 16.747 15.381 -0 0 -0 -0 0 -0 21.658 -34.663 29.619 -19.172 -74.073 -29.48 -0 0 -0 -0 0 -0 -6.253 -31.229 -11.698 69.143 -9.0714 -9.3618 -0 0 -0 -0 0 -0 -0 0 -0 -0 0 -0 -0 0 -0 -0 0 -0 -0 0 -0 -0 0 -0 -0 0 -0 -0 0 -0 -0 0 -0 -0 0 -0 -0 0 -0 -0 0 -0 -0 0 -0 
0 0.955 0 -0 0 -0 -0 0 -0 -0 0 -0 -7.8429 16.686 15.253 -0 0 -0 -0 0 -0 21.416 -34.653 29.273 -17.297 -73.618 -27.643 -0 0 -0 -0 0 -0 -6.0539 -30.894 -11.431 69.896 -8.8736 -9.1999 -0 0 -0 -0 0 -0 -0 0 -0 -0 0 -0 -0 0 -0 -0 0 -0 -0 0 -0 -0 0 -0 -0 0 -0 -0 0 -0 -0 0 -0 -0 0 -0 -0 0 -0 -0 0 -0 -0 0 -0 
0 0.955 0 -0 0 -0 -0 0 -0 -0 0 -0 -7.8079 16.631 15.13 -0 0 -0 -0 0 -0 21.128 -34.561 29.065 -15.812 -73.056 -26.354 -0 0 -0 -0 0 -0 -5.9062 -30.53 -11.223 70.577 -8.6296 -8.9406 -0 0 -0 -0 0 -0 -0 0 -0 -0 0 -0 -0 0 -0 -0 0 -0 -0 0 -0 -0 0 -0 -0 0 -0 -0 0 -0 -0 0 -0 -0 0 -0 -0 0 -0 -0 0 -0 -0 0 -0 
0 0.955 0 -0 0 -0 -0 0 -0 -0 0 -0 -7.7705 16.581 15.026 -0 0 -0 -0 0 -0 20.854 -34.375 29.061 -14.998 -72.422 -25.812 -0 0 -0 -0 0 -0 -5.8157 -30.161 -11.064 71.152 -8.3832 -8.5903 -0 0 -0 -0 0 -0 -0 0 -0 -0 0 -0 -0 0 -0 -0 0 -0 -0 0 -0 -0 0 -0 -0 0 -0 -0 0 -0 -0 0 -0 -0 0 -0 -0 0 -0 -0 0 -0 -0 0 -0 
0 0.955 0 -0 0 -0 -0 0 -0 -0 0 -0 -7.7348 16.536 14.938 -0 0 -0 -0 0 -0 20.607 -34.066 29.268 -15.038 -71.756 -26.07 -0 0 -0 -0 0 -0 -5.7867 -29.823 -10.942 71.635 -8.1133 -8.2745 -0 0 -0 -0 0 -0 -0 0 -0 -0 0 -0 -0 0 -0 -0 0 -0 -0 0 -0 -0 0 -0 -0 0 -0 -0 0 -0 -0 0 -0 -0 0 -0 -0 0 -0 -0 0 -0 -0 0 -0 
0 0.955 0 -0 0 -0 -0 0 -0 -0 0 -0 -7.707 16.496 14.855 -0 0 -0 -0 0 -0 20.365 -33.608 29.597 -15.601 -71.127 -26.797 -0 0 -0 -0 0 -0 -5.8081 -29.519 -10.844 72.044 -7.8217 -8.0473 -0 0 -0 -0 0 -0 -0 0 -0 -0 0 -0 -0 0 -0 -0 0 -0 -0 0 -0 -0 0 -0 -0 0 -0 -0 0 -0 -0 0 -0 -0 0 -0 -0 0 -0 -0 0 -0 -0 0 -0 
0 0.955 0 -0 0 -0 -0 0 -0 -0 0 -0 -7.6829 16.458 14.786 -0 0 -0 -0 0 -0 20.097 -32.998 29.881 -16.179 -70.606 -27.518 -0 0 -0 -0 0 -0 -5.8754 -29.245 -10.757 72.35 -7.581 -7.8639 -0 0 -0 -0 0 -0 -0 0 -0 -0 0 -0 -0 0 -0 -0 0 -0 -0 0 -0 -0 0 -0 -0 0 -0 -0 0 -0 -0 0 -0 -0 0 -0 -0 0 -0 -0 0 -0 -0 0 -0 
0 0.955 0 -0 0 -0 -0 0 -0 -0 0 -0 -7.6613 16.422 14.753 -0 0 -0 -0 0 -0 19.785 -32.233 29.976 -16.441 -70.23 -27.882 -0 0 -0 -0 0 -0 -5.9844 -29.039 -10.69 72.506 -7.4476 -7.7018 -0 0 -0 -0 0 -0 -0 0 -0 -0 0 -0 -0 0 -0 -0 0 -0 -0 0 -0 -0 0 -0 -0 0 -0 -0 0 -0 -0 0 -0 -0 0 -0 -0 0 -0 -0 0 -0 -0 0 -0 
0 0.955 0 -0 0 -0 -0 0 -0 -0 0 -0 -7.6589 16.403 14.757 -0 0 -0 -0 0 -0 19.446 -31.315 29.846 -16.159 -69.963 -27.739 -0 0 -0 -0 0 -0 -6.1022 -28.961 -10.689 72.471 -7.3702 -7.596 -0 0 -0 -0 0 -0 -0 0 -0 -0 0 -0 -0 0 -0 -0 0 -0 -0 0 -0 -0 0 -0 -0 0 -0 -0 0 -0 -0 0 -0 -0 0 -0 -0 0 -0 -0 0 -0 -0 0 -0 
0 0.955 0 -0 0 -0 -0 0 -0 -0 0 -0 -7.6803 16.394 14.803 -0 0 -0 -0 0 -0 19.102 -30.283 29.57 -15.314 -69.677 -27.176 -0 0 -0 -0 0 -0 -6.1993 -29.023 -10.802 72.207 -7.2533 -7.6036 -0 0 -0 -0 0 -0 -0 0 -0 -0 0 -0 -0 0 -0 -0 0 -0 -0 0 -0 -0 0 -0 -0 0 -0 -0 0 -0 -0 0 -0 -0 0 -0 -0 0 -0 -0 0 -0 -0 0 -0 
0 0.955 0 -0 0 -0 -0 0 -0 -0 0 -0 -7.7132 16.4 14.888 -0 0 -0 -0 0 -0 18.774 -29.216 29.285 -14.143 -69.236 -26.42 -0 0 -0 -0 0 -0 -6.2608 -29.203 -11.008 71.666 -7.095 -7.76 -0 0 -0 -0 0 -0 -0 0 -0 -0 0 -0 -0 0 -0 -0 0 -0 -0 0 -0 -0 0 -0 -0 0 -0 -0 0 -0 -0 0 -0 -0 0 -0 -0 0 -0 -0 0 -0 -0 0 -0 
0 0.955 0 -0 0 -0 -0 0 -0 -0 0 -0 -7.7465 16.427 15.008 -0 0 -0 -0 0 -0 18.474 -28.166 29.069 -12.929 -68.595 -25.677 -0 0 -0 -0 0 -0 -6.2815 -29.45 -11.213 70.823 -6.9929 -8.0801 -0 0 -0 -0 0 -0 -0 0 -0 -0 0 -0 -0 0 -0 -0 0 -0 -0 0 -0 -0 0 -0 -0 0 -0 -0 0 -0 -0 0 -0 -0 0 -0 -0 0 -0 -0 0 -0 -0 0 -0 
0 0.955 0 -0 0 -0 -0 0 -0 -0 0 -0 -7.7792 16.492 15.162 -0 0 -0 -0 0 -0 18.224 -27.183 28.92 -11.871 -67.774 -25.043 -0 0 -0 -0 0 -0 -6.2951 -29.725 -11.347 69.721 -7.0088 -8.6275 -0 0 -0 -0 0 -0 -0 0 -0 -0 0 -0 -0 0 -0 -0 0 -0 -0 0 -0 -0 0 -0 -0 0 -0 -0 0 -0 -0 0 -0 -0 0 -0 -0 0 -0 -0 0 -0 -0 0 -0 
0 0.955 0 -0 0 -0 -0 0 -0 -0 0 -0 -7.8104 16.596 15.317 -0 0 -0 -0 0 -0 18.067 -26.326 28.822 -10.967 -66.828 -24.5 -0 0 -0 -0 0 -0 -6.3064 -29.989 -11.404 68.442 -7.1157 -9.3648 -0 0 -0 -0 0 -0 -0 0 -0 -0 0 -0 -0 0 -0 -0 0 -0 -0 0 -0 -0 0 -0 -0 0 -0 -0 0 -0 -0 0 -0 -0 0 -0 -0 0 -0 -0 0 -0 -0 0 -0 
